<svg width="105" height="530" viewBox="0 0 105 530" fill="none" xmlns="http://www.w3.org/2000/svg">
<g filter="url(#filter0_dd_498_1193)">
<path d="M96.125 411.062L98.75 415.75C95.5 417.625 91 420.312 85.25 423.812C79.5 427.312 73.2917 431.083 66.625 435.125V493.125C69.4583 494.833 74.5417 497.917 81.875 502.375C89.2083 506.792 94.8333 510.146 98.75 512.438L96.3125 517.25C93.2292 515.375 80.0417 507.271 56.75 492.938C33.4167 478.604 19.0625 469.771 13.6875 466.438V461.625C21.3958 456.917 36.0208 447.979 57.5625 434.812C79.0625 421.646 91.9167 413.729 96.125 411.062ZM62.0625 437.938C56.3542 441.479 48.6042 446.312 38.8125 452.438C28.9792 458.521 22.6875 462.417 19.9375 464.125V464.5C22.6875 466.208 29.1042 470.167 39.1875 476.375C49.2708 482.583 56.8958 487.208 62.0625 490.25L62.125 490.188V438L62.0625 437.938ZM65.875 312.272C71.25 312.272 75.9583 313.502 80 315.96C84.0417 318.418 87.3958 322.064 90.0625 326.897C92.8125 331.897 94.8958 338.127 96.3125 345.585C97.6875 353.043 98.375 361.71 98.375 371.585C98.375 372.918 98.375 374.189 98.375 375.397C98.375 376.564 98.375 377.418 98.375 377.96C96.2917 377.96 91 377.96 82.5 377.96C74 377.918 62.9583 377.897 49.375 377.897C41.9167 377.897 34.75 377.918 27.875 377.96C20.9583 377.96 13.7917 377.96 6.375 377.96V372.772L35.125 372.96C35 363.335 35.7292 354.397 37.3125 346.147C38.8542 337.897 41.25 331.022 44.5 325.522C47 321.356 50.0417 318.106 53.625 315.772C57.1667 313.439 61.25 312.272 65.875 312.272ZM66 317.647C62 317.647 58.4375 318.772 55.3125 321.022C52.1875 323.231 49.5625 326.314 47.4375 330.272C44.9375 334.897 43.0417 340.564 41.75 347.272C40.4167 353.939 39.7083 361.189 39.625 369.022C39.625 369.897 39.625 370.71 39.625 371.46C39.625 372.21 39.625 372.71 39.625 372.96C40.1667 372.96 43.8125 372.96 50.5625 372.96C57.3125 372.918 63.0208 372.897 67.6875 372.897C72.1458 372.897 77.1458 372.877 82.6875 372.835C88.1875 372.752 91.9583 372.71 94 372.71C94 363.21 93.3542 354.835 92.0625 347.585C90.7708 340.293 88.75 334.293 86 329.585C83.75 325.71 80.9583 322.752 77.625 320.71C74.2917 318.668 70.4167 317.647 66 317.647ZM66.4375 201.607C71.2708 201.607 75.7708 202.607 79.9375 204.607C84.1042 206.607 87.6667 209.42 90.625 213.045C93.2917 216.295 95.3958 220.191 96.9375 224.732C98.4792 229.232 99.25 234.212 99.25 239.67C99.25 245.17 98.4792 250.191 96.9375 254.732C95.3958 259.274 93.3125 263.191 90.6875 266.482C87.7292 270.107 84.1667 272.941 80 274.982C75.8333 276.982 71.3333 277.982 66.5 277.982C61.375 277.982 56.6667 276.92 52.375 274.795C48.0833 272.67 44.4792 269.691 41.5625 265.857C39.0208 262.607 37.0417 258.753 35.625 254.295C34.2083 249.837 33.5 244.982 33.5 239.732C33.5 234.357 34.2083 229.399 35.625 224.857C37.0417 220.274 39.0625 216.316 41.6875 212.982C44.5208 209.441 48.0417 206.67 52.25 204.67C56.4167 202.628 61.1458 201.607 66.4375 201.607ZM66.4375 206.982C61.8542 206.982 57.7917 207.857 54.25 209.607C50.6667 211.357 47.6875 213.753 45.3125 216.795C42.9375 219.837 41.1042 223.316 39.8125 227.232C38.5208 231.149 37.875 235.253 37.875 239.545C37.875 244.253 38.5208 248.587 39.8125 252.545C41.0625 256.462 42.8542 259.857 45.1875 262.732C47.6875 265.816 50.75 268.232 54.375 269.982C57.9583 271.732 61.9792 272.607 66.4375 272.607C70.9792 272.607 75.0417 271.691 78.625 269.857C82.2083 267.982 85.2083 265.545 87.625 262.545C90 259.587 91.8125 256.149 93.0625 252.232C94.2708 248.316 94.875 244.191 94.875 239.857C94.875 235.232 94.25 230.962 93 227.045C91.7083 223.087 89.8958 219.67 87.5625 216.795C85.0625 213.753 82.0208 211.357 78.4375 209.607C74.8542 207.857 70.8542 206.982 66.4375 206.982ZM98 98.505V103.63L89.625 103.568V103.63C91.9167 108.338 94.1042 113.943 96.1875 120.443C98.2708 126.901 99.3125 133.338 99.3125 139.755C99.3125 146.297 97.5208 151.609 93.9375 155.693C90.3542 159.776 84.9583 161.818 77.75 161.818C74.4583 161.818 71.1875 161.818 67.9375 161.818C64.6875 161.818 61.4792 161.818 58.3125 161.818C55.1875 161.818 50.7708 161.818 45.0625 161.818C39.3542 161.818 35.9583 161.818 34.875 161.818V156.755C35.875 156.755 38.9583 156.776 44.125 156.818C49.2917 156.818 53.6667 156.818 57.25 156.818C61.2917 156.818 65.1667 156.797 68.875 156.755C72.5417 156.713 75.1667 156.693 76.75 156.693C82.9583 156.693 87.4792 155.068 90.3125 151.818C93.1458 148.568 94.5625 143.338 94.5625 136.13C94.5625 132.255 93.6667 127.38 91.875 121.505C90.0417 115.588 87.5833 109.609 84.5 103.568C84.5 103.568 81.9375 103.568 76.8125 103.568C71.6875 103.568 67.4375 103.568 64.0625 103.568C58.3542 103.568 52.4792 103.588 46.4375 103.63C40.3542 103.672 36.5 103.693 34.875 103.693V98.505C36.125 98.505 39.5208 98.5258 45.0625 98.5675C50.5625 98.5675 56.8958 98.5675 64.0625 98.5675C72.3958 98.5675 78.8542 98.5675 83.4375 98.5675C87.9792 98.5258 92.8333 98.505 98 98.505ZM93.75 12.09L98.25 12.9025C98.25 13.5275 98.25 14.2358 98.25 15.0275C98.2917 15.8192 98.3125 17.0067 98.3125 18.59C98.3125 28.5483 96.5625 35.84 93.0625 40.465C89.5625 45.09 84.0625 47.4025 76.5625 47.4025C70.5208 47.4025 63.5208 47.3608 55.5625 47.2775C47.6042 47.1525 42.1667 47.09 39.25 47.09V61.5275H34.875V47.09H20.25V42.09H34.875V11.715H39.25V42.09C41.125 42.09 43.8333 42.09 47.375 42.09C50.875 42.09 54.0417 42.09 56.875 42.09C61.625 42.09 65.5417 42.09 68.625 42.09C71.6667 42.09 73.7708 42.09 74.9375 42.09C81.6458 42.09 86.4792 40.1317 89.4375 36.215C92.3958 32.2983 93.875 26.0067 93.875 17.34C93.875 15.84 93.875 14.7983 93.875 14.215C93.8333 13.59 93.7917 12.8817 93.75 12.09Z" fill="white"/>
</g>
<defs>
<filter id="filter0_dd_498_1193" x="0.975" y="0.314844" width="103.738" height="528.935" filterUnits="userSpaceOnUse" color-interpolation-filters="sRGB">
<feFlood flood-opacity="0" result="BackgroundImageFix"/>
<feColorMatrix in="SourceAlpha" type="matrix" values="0 0 0 0 0 0 0 0 0 0 0 0 0 0 0 0 0 0 127 0" result="hardAlpha"/>
<feOffset dy="7"/>
<feGaussianBlur stdDeviation="2.5"/>
<feComposite in2="hardAlpha" operator="out"/>
<feColorMatrix type="matrix" values="0 0 0 0 0.72549 0 0 0 0 0.745098 0 0 0 0 0.768627 0 0 0 1 0"/>
<feBlend mode="normal" in2="BackgroundImageFix" result="effect1_dropShadow_498_1193"/>
<feColorMatrix in="SourceAlpha" type="matrix" values="0 0 0 0 0 0 0 0 0 0 0 0 0 0 0 0 0 0 127 0" result="hardAlpha"/>
<feOffset dy="-6"/>
<feGaussianBlur stdDeviation="2.7"/>
<feComposite in2="hardAlpha" operator="out"/>
<feColorMatrix type="matrix" values="0 0 0 0 0.956863 0 0 0 0 0.937255 0 0 0 0 0.92549 0 0 0 1 0"/>
<feBlend mode="normal" in2="effect1_dropShadow_498_1193" result="effect2_dropShadow_498_1193"/>
<feBlend mode="normal" in="SourceGraphic" in2="effect2_dropShadow_498_1193" result="shape"/>
</filter>
</defs>
</svg>
