<svg width="727" height="250" viewBox="0 0 727 250" fill="none" xmlns="http://www.w3.org/2000/svg">
<path d="M295.105 242.92L293.552 243.215L291.571 232.475V232.448C291.33 232.957 290.768 234.162 289.911 236.064C289.054 237.939 288.224 239.84 287.421 241.742H286.109C285.359 239.974 284.502 238.099 283.592 236.037C282.681 234.002 282.146 232.797 281.985 232.475H281.958C281.932 232.636 281.664 233.868 281.182 236.144C280.7 238.421 280.245 240.778 279.816 243.215L278.344 242.947C278.986 240.188 279.575 237.483 280.138 234.778C280.7 232.073 280.994 230.627 281.048 230.386L282.574 230.172C282.628 230.306 283.083 231.35 283.94 233.252C284.797 235.153 285.761 237.349 286.912 239.84H286.966C287.822 237.885 288.76 235.796 289.723 233.6C290.687 231.404 291.196 230.252 291.25 230.172L292.696 230.279C292.722 230.413 292.99 231.806 293.499 234.484C293.927 237.135 294.489 239.947 295.105 242.92Z" fill="black" stroke="black" stroke-width="0.05" stroke-miterlimit="10"/>
<path d="M315.937 243.108C315.883 243.108 315.455 243.108 314.651 243.108C313.848 243.108 312.884 243.108 311.706 243.108C310.903 243.108 310.153 243.108 309.484 243.108C308.814 243.108 308.252 243.108 307.77 243.108C307.77 242.733 307.797 241.929 307.797 240.697C307.797 239.465 307.797 238.18 307.797 236.867C307.797 236.144 307.797 235.18 307.797 234.002C307.797 232.823 307.77 231.591 307.77 230.306C308.225 230.306 308.788 230.306 309.457 230.306C310.126 230.306 310.822 230.306 311.545 230.306C312.777 230.306 313.768 230.306 314.517 230.306C315.294 230.306 315.696 230.306 315.749 230.306V231.645C315.696 231.645 315.294 231.645 314.544 231.618C313.795 231.591 312.884 231.591 311.786 231.591C311.304 231.591 310.849 231.591 310.367 231.591C309.912 231.591 309.537 231.591 309.269 231.591C309.269 232.314 309.269 233.037 309.243 233.761C309.216 234.484 309.216 235.153 309.216 235.796C309.51 235.796 309.832 235.796 310.233 235.796C310.635 235.796 310.983 235.796 311.278 235.796C312.402 235.796 313.393 235.796 314.277 235.769C315.16 235.769 315.642 235.742 315.696 235.742V237.055C315.642 237.055 315.107 237.055 314.116 237.028C313.125 237.028 312.188 237.001 311.358 237.001C311.063 237.001 310.689 237.001 310.26 237.001C309.832 237.001 309.484 237.001 309.189 237.001C309.189 238.206 309.189 239.171 309.189 239.867C309.189 240.563 309.189 241.179 309.216 241.661C309.591 241.661 310.046 241.661 310.581 241.688C311.117 241.688 311.706 241.688 312.322 241.688C313.286 241.688 314.062 241.688 314.732 241.688C315.374 241.688 315.749 241.688 315.83 241.688V243.108H315.937Z" fill="black" stroke="black" stroke-width="0.05" stroke-miterlimit="10"/>
<path d="M340.276 230.306C340.276 231.297 340.25 232.448 340.25 233.734C340.25 235.019 340.223 235.957 340.223 236.519C340.223 238.34 340.223 239.76 340.25 240.831C340.25 241.902 340.276 242.465 340.276 242.545L338.991 243.161C337.063 240.563 335.269 238.207 333.582 236.118C331.895 234.029 330.932 232.823 330.691 232.475H330.664C330.664 234.189 330.664 236.278 330.691 238.769C330.717 241.26 330.717 242.706 330.744 243.081H329.245C329.245 242.92 329.271 242.358 329.271 241.367C329.271 240.376 329.298 239.037 329.298 237.296C329.298 236.6 329.298 235.689 329.298 234.537C329.298 233.386 329.271 232.154 329.271 230.868L330.717 230.172C330.824 230.306 331.815 231.565 333.663 233.895C335.51 236.225 337.224 238.394 338.857 240.403H338.884C338.884 239.412 338.884 237.778 338.857 235.448C338.83 233.118 338.83 231.404 338.83 230.279H340.276V230.306Z" fill="black" stroke="black" stroke-width="0.05" stroke-miterlimit="10"/>
<path d="M364.99 242.599L363.491 243.375C363.464 243.295 363.25 242.84 362.875 241.956C362.5 241.072 361.991 239.947 361.349 238.555H355.672C355.003 240.054 354.467 241.206 354.119 242.009C353.744 242.84 353.557 243.295 353.503 243.375L352.218 242.679C352.379 242.358 353.075 240.885 354.28 238.287C355.485 235.689 356.743 232.957 358.029 230.118H359.26C360.546 232.984 361.777 235.742 363.009 238.421C364.241 241.099 364.937 242.492 364.99 242.599ZM360.84 237.323C360.492 236.546 360.144 235.716 359.769 234.885C359.394 234.028 358.993 233.145 358.591 232.234H358.564C358.243 232.93 357.868 233.787 357.413 234.832C356.958 235.85 356.583 236.68 356.288 237.349L360.84 237.323Z" fill="black" stroke="black" stroke-width="0.05" stroke-miterlimit="10"/>
<path d="M378.538 243.134H376.958C376.958 242.759 376.985 242.063 376.985 241.072C376.985 240.081 377.012 238.688 377.012 236.841C377.012 236.117 377.012 235.153 377.012 233.975C377.012 232.796 376.985 231.564 376.985 230.306H378.565C378.565 231.216 378.538 232.288 378.538 233.493C378.538 234.698 378.538 235.689 378.538 236.466C378.538 238.394 378.538 239.92 378.565 240.965C378.512 242.009 378.538 242.733 378.538 243.134Z" fill="black" stroke="black" stroke-width="0.05" stroke-miterlimit="10"/>
<path d="M408.715 243.134H407.135C407.135 242.759 407.161 242.063 407.161 241.072C407.161 240.081 407.188 238.688 407.188 236.841C407.188 236.117 407.188 235.153 407.188 233.975C407.188 232.796 407.161 231.564 407.161 230.306H408.741C408.741 231.216 408.715 232.288 408.715 233.493C408.715 234.698 408.715 235.689 408.715 236.466C408.715 238.394 408.714 239.92 408.741 240.965C408.714 242.009 408.715 242.733 408.715 243.134Z" fill="black" stroke="black" stroke-width="0.05" stroke-miterlimit="10"/>
<path d="M430.269 243.134H428.77C428.77 242.947 428.77 242.358 428.797 241.367C428.797 240.376 428.797 239.733 428.797 239.519C428.797 239.197 428.797 238.689 428.797 238.046C428.797 237.403 428.797 236.921 428.797 236.626C428.77 235.903 428.636 235.368 428.368 235.046C428.101 234.725 427.645 234.564 427.003 234.564C426.601 234.564 426.119 234.671 425.557 234.912C424.995 235.153 424.406 235.448 423.817 235.796C423.817 235.876 423.817 236.251 423.817 236.948C423.817 237.644 423.817 238.26 423.817 238.822C423.817 239.572 423.817 240.456 423.843 241.501C423.87 242.545 423.87 243.108 423.87 243.134H422.371C422.371 243.081 422.371 242.706 422.397 241.956C422.397 241.233 422.424 240.135 422.424 238.662C422.424 237.992 422.424 237.216 422.424 236.305C422.424 235.394 422.397 234.457 422.397 233.439H423.897V234.537V234.564C424.78 234.055 425.53 233.707 426.119 233.493C426.708 233.279 427.217 233.198 427.619 233.198C428.422 233.198 429.091 233.466 429.573 233.975C430.055 234.484 430.323 235.18 430.323 236.091C430.323 236.894 430.323 237.591 430.296 238.18C430.296 238.769 430.296 239.251 430.296 239.599C430.296 240.188 430.296 240.911 430.323 241.769C430.269 242.626 430.269 243.081 430.269 243.134Z" fill="black" stroke="black" stroke-width="0.05" stroke-miterlimit="10"/>
<path d="M448.584 241.929L448.423 243.135C448.369 243.135 448.262 243.135 448.102 243.161C447.914 243.161 447.78 243.161 447.646 243.161C446.334 243.161 445.344 242.894 444.674 242.331C444.005 241.795 443.657 240.938 443.657 239.814C443.657 239.117 443.657 238.341 443.657 237.537C443.657 236.734 443.684 235.716 443.684 234.511H442.077V233.386H443.764V231.109H445.156V233.386H448.584V234.511H445.156C445.156 234.645 445.156 235.046 445.13 235.716C445.13 236.385 445.13 236.868 445.13 237.189C445.13 237.457 445.13 237.778 445.13 238.18C445.13 238.582 445.13 239.037 445.13 239.573C445.13 240.403 445.344 240.992 445.799 241.367C446.254 241.742 446.924 241.929 447.861 241.929C447.968 241.929 448.102 241.929 448.262 241.929C448.45 241.929 448.557 241.929 448.584 241.929Z" fill="black" stroke="black" stroke-width="0.05" stroke-miterlimit="10"/>
<path d="M468.076 237.912H461.168C461.168 238.581 461.329 239.197 461.596 239.787C461.891 240.349 462.319 240.831 462.882 241.179C463.256 241.42 463.685 241.581 464.14 241.715C464.622 241.822 465.184 241.902 465.854 241.902C466.229 241.902 466.55 241.902 466.844 241.876C467.139 241.849 467.326 241.849 467.407 241.849L467.246 243.134C467.193 243.134 467.032 243.161 466.737 243.161C466.443 243.161 466.121 243.188 465.72 243.188C464.702 243.188 463.819 243.054 463.042 242.786C462.293 242.518 461.677 242.17 461.168 241.688C460.766 241.286 460.391 240.804 460.124 240.188C459.829 239.572 459.695 238.903 459.695 238.18C459.695 237.457 459.802 236.787 460.017 236.198C460.231 235.609 460.552 235.073 460.981 234.564C461.355 234.136 461.837 233.787 462.373 233.546C462.935 233.305 463.498 233.198 464.113 233.198C464.702 233.198 465.238 233.279 465.693 233.466C466.148 233.654 466.55 233.921 466.898 234.27C467.273 234.671 467.567 235.18 467.755 235.769C467.969 236.359 468.076 237.082 468.076 237.912ZM466.603 236.841C466.496 236.037 466.229 235.421 465.8 234.966C465.372 234.511 464.783 234.296 464.087 234.296C463.364 234.296 462.775 234.511 462.293 234.993C461.811 235.475 461.489 236.064 461.302 236.841H466.603Z" fill="black" stroke="black" stroke-width="0.05" stroke-miterlimit="10"/>
<path d="M485.802 234.564C485.454 234.644 484.918 234.831 484.195 235.099C483.472 235.367 482.642 235.715 481.705 236.17C481.705 236.251 481.705 236.572 481.705 237.135C481.705 237.697 481.705 238.233 481.705 238.715C481.705 239.465 481.705 240.375 481.732 241.393C481.759 242.437 481.759 243 481.759 243.107H480.259C480.259 243 480.259 242.652 480.286 242.036C480.313 241.42 480.313 240.402 480.313 238.929C480.313 238.34 480.313 237.51 480.313 236.438C480.313 235.367 480.286 234.376 480.286 233.412H481.759V234.858C482.482 234.456 483.205 234.108 483.901 233.787C484.597 233.492 485.159 233.278 485.588 233.171L485.802 234.564Z" fill="black" stroke="black" stroke-width="0.05" stroke-miterlimit="10"/>
<path d="M504.009 237.671C504.009 239.251 504.009 240.536 504.009 241.527C504.009 242.518 504.009 243.054 504.009 243.134C503.956 243.134 503.661 243.161 503.126 243.215C502.59 243.268 501.921 243.268 501.091 243.268C500.555 243.268 500.046 243.215 499.511 243.134C498.975 243.027 498.52 242.893 498.145 242.733C497.637 242.492 497.235 242.17 496.914 241.768C496.592 241.367 496.432 240.858 496.432 240.295C496.432 239.679 496.619 239.171 496.994 238.715C497.369 238.26 497.878 237.912 498.547 237.644C498.975 237.483 499.511 237.323 500.207 237.189C500.903 237.055 501.68 236.948 502.563 236.867C502.537 236.358 502.403 235.957 502.188 235.635C501.974 235.314 501.68 235.073 501.251 234.912C500.984 234.805 500.662 234.725 500.314 234.671C499.966 234.618 499.564 234.591 499.109 234.591C498.815 234.591 498.574 234.591 498.386 234.618C498.172 234.618 497.904 234.644 497.556 234.671L497.717 233.386C497.824 233.386 498.011 233.359 498.279 233.359C498.574 233.332 498.949 233.332 499.431 233.332C500.18 233.332 500.85 233.412 501.439 233.573C502.028 233.734 502.51 233.975 502.911 234.323C503.286 234.644 503.554 235.073 503.741 235.555C503.929 236.037 504.009 236.733 504.009 237.671ZM502.537 239.974C502.537 239.76 502.537 239.492 502.537 239.144C502.537 238.796 502.537 238.421 502.537 237.992C502.269 237.992 501.76 238.072 501.064 238.153C500.368 238.26 499.779 238.394 499.297 238.581C498.949 238.715 498.627 238.93 498.333 239.197C498.065 239.465 497.904 239.787 497.904 240.188C497.904 240.617 498.011 240.965 498.252 241.233C498.493 241.501 498.815 241.688 499.216 241.849C499.538 241.956 499.886 242.036 500.261 242.09C500.635 242.143 501.037 242.17 501.465 242.17C501.599 242.17 501.76 242.17 501.947 242.17C502.135 242.17 502.322 242.17 502.537 242.143C502.537 242.09 502.537 241.876 502.537 241.501C502.537 241.126 502.537 240.617 502.537 239.974Z" fill="black" stroke="black" stroke-width="0.05" stroke-miterlimit="10"/>
<path d="M523.422 241.875L523.314 243.161C523.261 243.161 523.181 243.161 523.073 243.161C522.966 243.161 522.859 243.161 522.779 243.161C521.949 243.161 521.199 243.08 520.476 242.92C519.753 242.759 519.111 242.518 518.548 242.223C517.772 241.795 517.183 241.232 516.728 240.536C516.272 239.84 516.085 239.063 516.085 238.206C516.085 237.429 516.272 236.733 516.674 236.09C517.076 235.447 517.584 234.912 518.227 234.51C518.789 234.135 519.485 233.867 520.289 233.653C521.092 233.439 521.922 233.358 522.779 233.358C522.859 233.358 522.913 233.358 522.993 233.358C523.073 233.358 523.127 233.358 523.181 233.358L523.261 234.644C523.207 234.644 523.154 234.644 523.127 234.644C523.073 234.644 523.02 234.644 522.966 234.644C522.27 234.644 521.654 234.698 521.146 234.778C520.637 234.858 520.155 235.019 519.7 235.206C519.057 235.474 518.575 235.876 518.2 236.412C517.825 236.974 517.638 237.536 517.638 238.179C517.638 238.929 517.825 239.545 518.173 240.054C518.522 240.563 518.977 240.965 519.566 241.232C520.021 241.447 520.503 241.607 521.065 241.688C521.628 241.795 522.217 241.822 522.859 241.822C522.966 241.822 523.073 241.822 523.207 241.822C523.288 241.875 523.368 241.875 523.422 241.875Z" fill="black" stroke="black" stroke-width="0.05" stroke-miterlimit="10"/>
<path d="M540.8 241.929L540.639 243.135C540.586 243.135 540.479 243.135 540.318 243.161C540.131 243.161 539.997 243.161 539.863 243.161C538.551 243.161 537.56 242.894 536.891 242.331C536.221 241.795 535.873 240.938 535.873 239.814C535.873 239.117 535.873 238.341 535.873 237.537C535.873 236.734 535.9 235.716 535.9 234.511H534.293V233.386H535.98V231.109H537.373V233.386H540.8V234.511H537.373C537.373 234.645 537.373 235.046 537.346 235.716C537.346 236.385 537.346 236.868 537.346 237.189C537.346 237.457 537.346 237.778 537.346 238.18C537.346 238.582 537.346 239.037 537.346 239.573C537.346 240.403 537.56 240.992 538.015 241.367C538.47 241.742 539.14 241.929 540.077 241.929C540.184 241.929 540.318 241.929 540.479 241.929C540.666 241.929 540.746 241.929 540.8 241.929Z" fill="black" stroke="black" stroke-width="0.05" stroke-miterlimit="10"/>
<path d="M554.536 231.564H552.849V229.931H554.536V231.564ZM554.455 243.134H552.956C552.956 243.027 552.982 242.411 552.982 241.259C552.982 240.108 553.009 239.144 553.009 238.394C553.009 237.724 553.009 237.001 553.009 236.224C553.009 235.448 552.982 234.51 552.982 233.439H554.482C554.482 234.35 554.455 235.207 554.455 236.01C554.455 236.814 554.428 237.537 554.428 238.153C554.428 239.653 554.428 240.831 554.455 241.742C554.428 242.625 554.455 243.107 554.455 243.134Z" fill="black" stroke="black" stroke-width="0.05" stroke-miterlimit="10"/>
<path d="M575.796 233.814C574.966 235.715 574.082 237.724 573.145 239.84C572.208 241.956 571.726 243.054 571.699 243.134H570.575C570.548 243.054 570.066 242.009 569.182 240.027C568.272 238.019 567.361 235.983 566.424 233.921L567.817 233.278L571.19 241.259H571.217L574.484 233.305L575.796 233.814Z" fill="black" stroke="black" stroke-width="0.05" stroke-miterlimit="10"/>
<path d="M595.155 237.912H588.247C588.247 238.581 588.407 239.197 588.675 239.787C588.97 240.349 589.398 240.831 589.96 241.179C590.335 241.42 590.764 241.581 591.219 241.715C591.701 241.822 592.263 241.902 592.932 241.902C593.307 241.902 593.628 241.902 593.923 241.876C594.218 241.849 594.405 241.849 594.485 241.849L594.325 243.134C594.271 243.134 594.11 243.161 593.816 243.161C593.521 243.161 593.2 243.188 592.798 243.188C591.781 243.188 590.897 243.054 590.121 242.786C589.371 242.518 588.755 242.17 588.247 241.688C587.845 241.286 587.47 240.804 587.202 240.188C586.908 239.572 586.774 238.903 586.774 238.18C586.774 237.457 586.881 236.787 587.095 236.198C587.309 235.609 587.631 235.073 588.059 234.564C588.434 234.136 588.916 233.787 589.451 233.546C590.014 233.305 590.576 233.198 591.192 233.198C591.781 233.198 592.316 233.279 592.772 233.466C593.227 233.654 593.629 233.921 593.977 234.27C594.351 234.671 594.646 235.18 594.833 235.769C595.048 236.359 595.155 237.082 595.155 237.912ZM593.682 236.841C593.575 236.037 593.307 235.421 592.879 234.966C592.45 234.511 591.861 234.296 591.165 234.296C590.442 234.296 589.853 234.511 589.371 234.993C588.889 235.475 588.568 236.064 588.38 236.841H593.682Z" fill="black" stroke="black" stroke-width="0.05" stroke-miterlimit="10"/>
<path d="M632.989 236.787C632.989 237.912 632.721 238.903 632.159 239.733C631.596 240.564 630.9 241.26 630.017 241.769C629.24 242.224 628.41 242.572 627.446 242.813C626.509 243.054 625.438 243.162 624.287 243.162C623.831 243.162 623.403 243.161 622.975 243.135C622.546 243.135 622.305 243.108 622.278 243.108C622.278 243.081 622.278 242.331 622.305 240.912C622.332 239.466 622.332 238.1 622.332 236.814C622.332 236.118 622.332 235.261 622.332 234.189C622.332 233.118 622.305 231.806 622.278 230.279C622.332 230.279 622.626 230.279 623.162 230.279C623.671 230.279 623.965 230.279 623.992 230.279C625.304 230.279 626.482 230.386 627.5 230.627C628.517 230.868 629.427 231.243 630.231 231.752C631.168 232.341 631.864 233.065 632.319 233.895C632.774 234.725 632.989 235.689 632.989 236.787ZM631.382 236.787C631.382 235.957 631.195 235.207 630.847 234.538C630.499 233.868 629.936 233.279 629.16 232.797C628.437 232.341 627.634 232.02 626.777 231.859C625.893 231.672 625.117 231.592 624.394 231.592C624.313 231.592 624.206 231.592 624.099 231.592C623.992 231.592 623.912 231.592 623.885 231.592C623.885 232.609 623.858 233.44 623.858 234.109C623.858 234.779 623.858 235.314 623.858 235.689C623.858 235.957 623.858 236.627 623.858 237.644C623.858 238.662 623.858 240.108 623.885 241.93C623.965 241.93 624.046 241.93 624.126 241.93C624.206 241.93 624.286 241.93 624.367 241.93C625.197 241.93 626.027 241.822 626.857 241.635C627.687 241.447 628.41 241.18 628.972 240.831C629.695 240.403 630.284 239.841 630.739 239.171C631.141 238.475 631.382 237.698 631.382 236.787Z" fill="black" stroke="black" stroke-width="0.05" stroke-miterlimit="10"/>
<path d="M653.205 237.912H646.296C646.296 238.581 646.457 239.197 646.725 239.787C647.019 240.349 647.448 240.831 648.01 241.179C648.385 241.42 648.813 241.581 649.269 241.715C649.75 241.822 650.313 241.902 650.982 241.902C651.357 241.902 651.678 241.902 651.973 241.876C652.267 241.849 652.455 241.849 652.535 241.849L652.375 243.134C652.321 243.134 652.16 243.161 651.866 243.161C651.571 243.161 651.25 243.188 650.848 243.188C649.831 243.188 648.947 243.054 648.171 242.786C647.421 242.518 646.805 242.17 646.296 241.688C645.895 241.286 645.52 240.804 645.252 240.188C644.958 239.572 644.824 238.903 644.824 238.18C644.824 237.457 644.931 236.787 645.145 236.198C645.359 235.609 645.681 235.073 646.109 234.564C646.484 234.136 646.966 233.787 647.501 233.546C648.064 233.305 648.626 233.198 649.242 233.198C649.831 233.198 650.366 233.279 650.821 233.466C651.277 233.654 651.678 233.921 652.026 234.27C652.401 234.671 652.696 235.18 652.883 235.769C653.097 236.359 653.205 237.082 653.205 237.912ZM651.705 236.841C651.598 236.037 651.33 235.421 650.902 234.966C650.473 234.511 649.884 234.296 649.188 234.296C648.465 234.296 647.876 234.511 647.394 234.993C646.912 235.475 646.591 236.064 646.403 236.841H651.705Z" fill="black" stroke="black" stroke-width="0.05" stroke-miterlimit="10"/>
<path d="M670.609 240.322C670.609 240.804 670.502 241.206 670.261 241.581C670.02 241.956 669.725 242.25 669.35 242.492C668.949 242.733 668.493 242.92 667.958 243.054C667.422 243.188 666.833 243.241 666.191 243.241C665.869 243.241 665.548 243.215 665.227 243.188C664.879 243.161 664.691 243.134 664.664 243.134L664.611 241.876C664.664 241.876 664.879 241.902 665.28 241.929C665.682 241.956 666.057 241.983 666.432 241.983C666.646 241.983 666.94 241.956 667.288 241.929C667.636 241.902 667.931 241.822 668.172 241.715C668.493 241.581 668.734 241.393 668.868 241.206C669.029 240.992 669.082 240.751 669.082 240.456C669.082 240.188 669.029 239.974 668.895 239.813C668.761 239.653 668.574 239.492 668.333 239.331C668.092 239.171 667.717 238.983 667.288 238.769C666.833 238.581 666.485 238.394 666.164 238.206C665.735 237.939 665.414 237.644 665.173 237.269C664.959 236.921 664.825 236.492 664.825 236.037C664.825 235.582 664.959 235.153 665.2 234.751C665.441 234.35 665.816 234.082 666.244 233.841C666.619 233.627 667.047 233.493 667.503 233.439C667.958 233.359 668.413 233.332 668.841 233.332C669.243 233.332 669.538 233.332 669.805 233.359C670.046 233.359 670.207 233.386 670.234 233.386L670.341 234.671C670.287 234.671 670.1 234.671 669.752 234.644C669.404 234.618 669.029 234.618 668.6 234.618C668.306 234.618 668.038 234.644 667.77 234.698C667.503 234.751 667.288 234.832 667.101 234.912C666.833 235.046 666.619 235.234 666.512 235.421C666.405 235.609 666.325 235.823 666.325 235.983C666.325 236.251 666.405 236.466 666.565 236.653C666.726 236.84 666.914 237.001 667.155 237.108C667.422 237.269 667.77 237.43 668.226 237.644C668.681 237.858 669.002 238.019 669.216 238.153C669.671 238.421 669.993 238.742 670.234 239.09C670.502 239.438 670.609 239.84 670.609 240.322Z" fill="black" stroke="black" stroke-width="0.05" stroke-miterlimit="10"/>
<path d="M684.613 231.564H682.926V229.931H684.613V231.564ZM684.532 243.134H683.033C683.033 243.027 683.06 242.411 683.06 241.259C683.06 240.108 683.086 239.144 683.086 238.394C683.086 237.724 683.086 237.001 683.086 236.224C683.086 235.448 683.06 234.51 683.06 233.439H684.559C684.559 234.35 684.532 235.207 684.532 236.01C684.532 236.814 684.506 237.537 684.506 238.153C684.506 239.653 684.505 240.831 684.532 241.742C684.505 242.625 684.532 243.107 684.532 243.134Z" fill="black" stroke="black" stroke-width="0.05" stroke-miterlimit="10"/>
<path d="M705.042 233.358C705.042 233.492 705.042 234.135 705.042 235.26C705.042 236.385 705.015 237.456 705.015 238.474C705.015 239.17 705.015 239.866 705.015 240.59C705.015 241.313 705.015 241.955 705.015 242.545C705.015 243.643 704.827 244.5 704.453 245.116C704.078 245.732 703.542 246.241 702.873 246.589C702.337 246.857 701.668 247.098 700.891 247.258C700.115 247.419 699.178 247.499 698.053 247.499L697.892 246.294C698.642 246.294 699.312 246.241 699.901 246.187C700.49 246.107 701.025 246 701.507 245.812C702.257 245.544 702.766 245.169 703.06 244.687C703.355 244.205 703.515 243.67 703.515 243C703.435 243 703.355 243 703.274 243C703.194 243 703.114 243 703.033 243C702.284 243 701.48 242.92 700.677 242.732C699.874 242.545 699.178 242.25 698.615 241.875C698.053 241.5 697.598 241.018 697.25 240.402C696.902 239.786 696.714 239.036 696.714 238.152C696.714 237.269 696.955 236.465 697.464 235.796C697.973 235.126 698.615 234.564 699.445 234.162C700.035 233.867 700.677 233.68 701.373 233.573C702.069 233.466 702.9 233.412 703.89 233.412C704.078 233.412 704.238 233.412 704.426 233.412C704.613 233.412 704.854 233.358 705.042 233.358ZM703.596 238.447C703.596 237.992 703.596 237.402 703.596 236.733C703.596 236.037 703.596 235.34 703.569 234.59C703.542 234.59 703.489 234.59 703.435 234.59C703.381 234.59 703.355 234.59 703.301 234.59C702.712 234.59 702.177 234.617 701.748 234.698C701.293 234.778 700.838 234.912 700.356 235.126C699.713 235.394 699.204 235.822 698.856 236.358C698.508 236.894 698.348 237.51 698.348 238.206C698.348 238.902 698.508 239.518 698.856 240C699.204 240.509 699.66 240.884 700.222 241.152C700.624 241.339 701.052 241.473 701.587 241.607C702.096 241.714 702.659 241.768 703.221 241.768C703.301 241.768 703.355 241.768 703.408 241.768C703.462 241.768 703.515 241.768 703.569 241.768C703.569 241.688 703.569 241.339 703.569 240.697C703.596 240.054 703.596 239.304 703.596 238.447Z" fill="black" stroke="black" stroke-width="0.05" stroke-miterlimit="10"/>
<path d="M726.087 243.134H724.588C724.588 242.947 724.588 242.358 724.615 241.367C724.615 240.376 724.615 239.733 724.615 239.519C724.615 239.197 724.615 238.689 724.615 238.046C724.615 237.403 724.615 236.921 724.615 236.626C724.588 235.903 724.454 235.368 724.186 235.046C723.918 234.725 723.463 234.564 722.821 234.564C722.419 234.564 721.937 234.671 721.375 234.912C720.813 235.153 720.223 235.448 719.634 235.796C719.634 235.876 719.634 236.251 719.634 236.948C719.634 237.644 719.634 238.26 719.634 238.822C719.634 239.572 719.634 240.456 719.661 241.501C719.688 242.545 719.688 243.108 719.688 243.134H718.188C718.188 243.081 718.189 242.706 718.215 241.956C718.215 241.233 718.242 240.135 718.242 238.662C718.242 237.992 718.242 237.216 718.242 236.305C718.242 235.394 718.215 234.457 718.215 233.439H719.715V234.537V234.564C720.598 234.055 721.348 233.707 721.937 233.493C722.526 233.279 723.035 233.198 723.436 233.198C724.24 233.198 724.909 233.466 725.391 233.975C725.873 234.484 726.141 235.18 726.141 236.091C726.141 236.894 726.141 237.591 726.114 238.18C726.114 238.769 726.114 239.251 726.114 239.599C726.114 240.188 726.114 240.911 726.141 241.769C726.061 242.626 726.087 243.081 726.087 243.134Z" fill="black" stroke="black" stroke-width="0.05" stroke-miterlimit="10"/>
<path d="M126.927 8.52246H161.281" stroke="black" stroke-width="7" stroke-miterlimit="10"/>
<path d="M249.534 125.052C246.776 286.468 6.7579 286.441 4 125.052C6.7579 -36.364 246.776 -36.3372 249.534 125.052Z" stroke="black" stroke-width="7" stroke-miterlimit="10"/>
<path d="M126.766 125.052H249.533" stroke="black" stroke-width="7" stroke-miterlimit="10"/>
<path d="M126.766 69.1572H236.065" stroke="black" stroke-width="7" stroke-miterlimit="10"/>
<path d="M29.4106 202.479V132.712L124.277 239.68L125.455 14.9238L76.4288 94.1454L36.4526 44.5717" stroke="black" stroke-width="7" stroke-miterlimit="10"/>
<path d="M222.115 202.372L177.319 130.033L127.141 246.107" stroke="black" stroke-width="7" stroke-miterlimit="10"/>
<path d="M204.925 173.983H175.312" stroke="black" stroke-width="7" stroke-miterlimit="10"/>
<path d="M92.8689 157.298H40.9775V178.483H92.8689V157.298Z" fill="black"/>
<path d="M193.545 49.6875H176.248V82.5224H193.545V49.6875Z" fill="black"/>
<path d="M230.442 125.052V141.469" stroke="black" stroke-width="7" stroke-miterlimit="10"/>
<path d="M230.442 150.87V192.49" stroke="black" stroke-width="7" stroke-miterlimit="10"/>
<path d="M444.729 34.2334H476.511" stroke="black" stroke-width="5" stroke-miterlimit="10" stroke-linecap="square"/>
<path d="M460.606 16.6914V66.8008" stroke="black" stroke-width="5" stroke-miterlimit="10" stroke-linecap="square"/>
<path d="M475.012 50.999V65.0864" stroke="black" stroke-width="5" stroke-miterlimit="10" stroke-linecap="square"/>
<path d="M452.762 80.2451H468.479" stroke="black" stroke-width="5" stroke-miterlimit="10" stroke-linecap="square"/>
<path d="M437.82 101.457H483.419" stroke="black" stroke-width="5" stroke-miterlimit="10" stroke-linecap="square"/>
<path d="M460.606 192.088V101.457" stroke="black" stroke-width="5" stroke-miterlimit="10" stroke-linecap="square"/>
<path d="M443.952 144.576V176.768" stroke="black" stroke-width="5" stroke-miterlimit="10" stroke-linecap="square"/>
<path d="M477.288 144.576V176.768" stroke="black" stroke-width="5" stroke-miterlimit="10" stroke-linecap="square"/>
<path d="M538.82 17.9238H572.102" stroke="black" stroke-width="5" stroke-miterlimit="10" stroke-linecap="square"/>
<path d="M555.153 17.9238V109.599H572.102" stroke="black" stroke-width="5" stroke-miterlimit="10" stroke-linecap="square"/>
<path d="M568.004 63.7744H581.285L572.53 189.892" stroke="black" stroke-width="5" stroke-miterlimit="10" stroke-linecap="square"/>
<path d="M542.059 190.856H585.73" stroke="black" stroke-width="5" stroke-miterlimit="10" stroke-linecap="square"/>
<path d="M644.529 17.9238H673.581" stroke="black" stroke-width="5" stroke-miterlimit="10" stroke-linecap="square"/>
<path d="M644.529 40.5547H673.581" stroke="black" stroke-width="5" stroke-miterlimit="10" stroke-linecap="square"/>
<path d="M673.581 59.249H644.529V93.9319H673.581V59.249Z" stroke="black" stroke-width="5" stroke-miterlimit="10" stroke-linecap="square"/>
<path d="M637.916 190.883L681.587 190.856" stroke="black" stroke-width="5" stroke-miterlimit="10" stroke-linecap="square"/>
<path d="M644.529 139.22H675" stroke="black" stroke-width="5" stroke-miterlimit="10" stroke-linecap="square"/>
<path d="M644.529 72.7197H673.581" stroke="black" stroke-width="5" stroke-miterlimit="10" stroke-linecap="square"/>
<path d="M694.6 42.6172H720.01V190.856" stroke="black" stroke-width="5" stroke-miterlimit="10" stroke-linecap="square"/>
<path d="M707.291 17.9238L702.632 190.856" stroke="black" stroke-width="5" stroke-miterlimit="10" stroke-linecap="square"/>
<path d="M659.765 17.9238V190.856" stroke="black" stroke-width="5" stroke-miterlimit="10" stroke-linecap="square"/>
<path d="M291.678 175.188V191.526" stroke="black" stroke-width="5" stroke-miterlimit="10" stroke-linecap="square"/>
<path d="M289.51 47.1426L307.744 20.2266L326.005 47.1426" stroke="black" stroke-width="5" stroke-miterlimit="10" stroke-linecap="square"/>
<path d="M317.49 70.7646H300.702" stroke="black" stroke-width="5" stroke-miterlimit="10" stroke-linecap="square"/>
<path d="M300.702 100.225H317.49" stroke="black" stroke-width="5" stroke-miterlimit="10" stroke-linecap="square"/>
<path d="M309.083 71.9961V191.525" stroke="black" stroke-width="5" stroke-miterlimit="10" stroke-linecap="square"/>
<path d="M326.111 175.188V191.526" stroke="black" stroke-width="5" stroke-miterlimit="10" stroke-linecap="square"/>
<path d="M286.912 191.525H330.583" stroke="black" stroke-width="5" stroke-miterlimit="10" stroke-linecap="square"/>
<path d="M348.202 16.6914V34.2337H370.827V16.6914" stroke="black" stroke-width="5" stroke-miterlimit="10" stroke-linecap="square"/>
<path d="M359.528 38.4385V66.8008" stroke="black" stroke-width="5" stroke-miterlimit="10" stroke-linecap="square"/>
<path d="M342.927 66.8008H375.861" stroke="black" stroke-width="5" stroke-miterlimit="10" stroke-linecap="square"/>
<path d="M342.927 48.1064H375.861" stroke="black" stroke-width="5" stroke-miterlimit="10" stroke-linecap="square"/>
<path d="M336.769 101.457H382.1" stroke="black" stroke-width="5" stroke-miterlimit="10" stroke-linecap="square"/>
<path d="M359.527 80.2451L359.394 192.087" stroke="black" stroke-width="5" stroke-miterlimit="10" stroke-linecap="square"/>
<path d="M375.861 136.488V192.409" stroke="black" stroke-width="5" stroke-miterlimit="10" stroke-linecap="square"/>
</svg>
