<svg width="955" height="451" viewBox="0 0 955 451" fill="none" xmlns="http://www.w3.org/2000/svg">
<path d="M48 396C58.9614 327.594 105.243 193.183 202.677 202.791C324.47 214.801 304.951 342.376 464.5 310C624.049 277.624 504.574 173.647 603 140C679 114.02 779.5 233.5 836 114.02" stroke="#B6BCC3" stroke-width="7" stroke-dasharray="9 9"/>
<path d="M25.5586 412.973C25.4336 412.973 24.9102 412.969 23.9883 412.961C23.0664 412.953 21.6719 412.949 19.8047 412.949C19.7891 414.551 19.7773 415.766 19.7695 416.594C19.7617 417.422 19.7578 418.551 19.7578 419.98C19.7578 421.355 19.7617 422.754 19.7695 424.176C19.7852 425.59 19.7969 426.531 19.8047 427H17.8711C17.8867 426.531 17.8984 425.574 17.9062 424.129C17.9219 422.684 17.9297 421.27 17.9297 419.887C17.9297 418.527 17.9297 417.449 17.9297 416.652C17.9297 415.848 17.918 414.613 17.8945 412.949C16.2305 412.941 14.8789 412.945 13.8398 412.961C12.8086 412.969 12.2422 412.973 12.1406 412.973V411.344C12.9453 411.344 13.9219 411.348 15.0703 411.355C16.2266 411.363 17.457 411.367 18.7617 411.367C20.6523 411.367 22.2305 411.363 23.4961 411.355C24.7695 411.348 25.457 411.344 25.5586 411.344V412.973ZM37.9584 420.32C37.9584 422.258 37.9545 423.836 37.9467 425.055C37.9389 426.273 37.935 426.93 37.935 427.023C37.8569 427.031 37.4936 427.059 36.8452 427.105C36.1967 427.16 35.3608 427.188 34.3373 427.188C33.6967 427.188 33.0522 427.129 32.4037 427.012C31.7553 426.895 31.1967 426.727 30.728 426.508C30.103 426.219 29.5952 425.824 29.2045 425.324C28.8217 424.824 28.6303 424.223 28.6303 423.52C28.6303 422.777 28.8569 422.137 29.31 421.598C29.7709 421.051 30.4077 420.609 31.2202 420.273C31.728 420.062 32.4037 419.875 33.2475 419.711C34.0991 419.539 35.0678 419.41 36.1537 419.324C36.1069 418.715 35.9545 418.215 35.6967 417.824C35.4389 417.434 35.06 417.137 34.56 416.934C34.2162 416.793 33.8334 416.695 33.4116 416.641C32.9897 416.578 32.4975 416.547 31.935 416.547C31.5834 416.547 31.2827 416.555 31.0327 416.57C30.7905 416.586 30.4584 416.605 30.0366 416.629L30.2241 415.07C30.3412 415.062 30.5717 415.051 30.9155 415.035C31.267 415.012 31.7436 415 32.3452 415C33.267 415 34.0873 415.098 34.8061 415.293C35.5327 415.48 36.1342 415.789 36.6108 416.219C37.0561 416.625 37.392 417.129 37.6186 417.73C37.8452 418.324 37.9584 419.188 37.9584 420.32ZM36.1655 423.145C36.1655 422.879 36.1655 422.543 36.1655 422.137C36.1655 421.73 36.1616 421.262 36.1537 420.73C35.81 420.746 35.2084 420.816 34.3491 420.941C33.4897 421.059 32.767 421.23 32.1811 421.457C31.7436 421.621 31.353 421.867 31.0092 422.195C30.6733 422.523 30.5053 422.93 30.5053 423.414C30.5053 423.945 30.6498 424.375 30.9389 424.703C31.228 425.023 31.6225 425.27 32.1225 425.441C32.5053 425.574 32.9272 425.672 33.3881 425.734C33.8569 425.789 34.3491 425.816 34.8647 425.816C35.0209 425.816 35.2123 425.812 35.4389 425.805C35.6655 425.797 35.9037 425.789 36.1537 425.781C36.1537 425.727 36.1537 425.469 36.1537 425.008C36.1616 424.547 36.1655 423.926 36.1655 423.145ZM48.788 412.867H46.7255V410.852H48.788V412.867ZM48.6825 427H46.8309C46.8387 426.875 46.8466 426.105 46.8544 424.691C46.87 423.277 46.8778 422.109 46.8778 421.188C46.8778 420.383 46.8739 419.5 46.8661 418.539C46.8661 417.57 46.8544 416.438 46.8309 415.141H48.6825C48.6669 416.266 48.6512 417.32 48.6356 418.305C48.6278 419.281 48.6239 420.152 48.6239 420.918C48.6239 422.738 48.6317 424.199 48.6473 425.301C48.6708 426.402 48.6825 426.969 48.6825 427ZM67.8089 420.707C67.8089 421.918 67.5394 422.949 67.0003 423.801C66.4613 424.645 65.7347 425.312 64.8206 425.805C64.0238 426.227 63.1488 426.523 62.1956 426.695C61.2425 426.867 60.3363 426.953 59.4769 426.953L59.5238 432.332H57.6605C57.6683 432.199 57.6761 431.117 57.6839 429.086C57.6995 427.062 57.7073 425.031 57.7073 422.992C57.7073 421.969 57.7034 420.781 57.6956 419.43C57.6878 418.07 57.6761 416.609 57.6605 415.047C57.9105 415.039 58.1566 415.035 58.3988 415.035C58.6488 415.035 58.8402 415.035 58.973 415.035C60.6136 415.035 61.887 415.121 62.7933 415.293C63.6995 415.465 64.5238 415.77 65.2659 416.207C66.055 416.668 66.6761 417.285 67.1292 418.059C67.5823 418.824 67.8089 419.707 67.8089 420.707ZM65.9339 420.766C65.9339 420 65.7542 419.328 65.3948 418.75C65.0355 418.172 64.5667 417.715 63.9886 417.379C63.4652 417.082 62.8675 416.867 62.1956 416.734C61.5316 416.594 60.8089 416.523 60.0277 416.523C59.9417 416.523 59.8558 416.523 59.7698 416.523C59.6839 416.523 59.5941 416.523 59.5003 416.523C59.5003 416.656 59.4925 417.121 59.4769 417.918C59.4691 418.707 59.4652 420.074 59.4652 422.02C59.4652 422.426 59.4652 422.996 59.4652 423.73C59.473 424.465 59.4769 425.051 59.4769 425.488C60.2113 425.488 60.9456 425.422 61.68 425.289C62.4144 425.148 63.0198 424.961 63.4964 424.727C64.2933 424.336 64.8988 423.816 65.3128 423.168C65.7269 422.52 65.9339 421.719 65.9339 420.766ZM84.6736 420.637H76.2009C76.2087 421.465 76.3845 422.227 76.7283 422.922C77.072 423.609 77.5994 424.18 78.3103 424.633C78.7634 424.922 79.2791 425.141 79.8572 425.289C80.4353 425.43 81.1306 425.5 81.9431 425.5C82.3884 425.5 82.7947 425.488 83.1619 425.465C83.5369 425.441 83.7673 425.426 83.8533 425.418L83.6423 426.977C83.5798 426.984 83.3728 426.996 83.0212 427.012C82.6697 427.035 82.2556 427.047 81.7791 427.047C80.5291 427.047 79.4392 426.887 78.5095 426.566C77.5877 426.238 76.8298 425.789 76.2361 425.219C75.7283 424.742 75.2947 424.133 74.9353 423.391C74.5837 422.648 74.408 421.824 74.408 420.918C74.408 420.027 74.5408 419.223 74.8064 418.504C75.072 417.785 75.4705 417.117 76.0017 416.5C76.4627 415.969 77.033 415.559 77.7127 415.27C78.4002 414.98 79.1111 414.836 79.8455 414.836C80.572 414.836 81.2166 414.945 81.7791 415.164C82.3416 415.383 82.8298 415.715 83.2439 416.16C83.7048 416.66 84.0564 417.277 84.2986 418.012C84.5408 418.738 84.6658 419.613 84.6736 420.637ZM82.8572 419.324C82.7322 418.355 82.4002 417.598 81.8611 417.051C81.3298 416.496 80.6267 416.219 79.7517 416.219C78.8767 416.219 78.1462 416.5 77.5603 417.062C76.9744 417.617 76.5681 418.371 76.3416 419.324H82.8572ZM94.4133 412.867H92.3508V410.852H94.4133V412.867ZM94.3078 427H92.4563C92.4641 426.875 92.4719 426.105 92.4797 424.691C92.4953 423.277 92.5031 422.109 92.5031 421.188C92.5031 420.383 92.4992 419.5 92.4914 418.539C92.4914 417.57 92.4797 416.438 92.4563 415.141H94.3078C94.2922 416.266 94.2766 417.32 94.2609 418.305C94.2531 419.281 94.2492 420.152 94.2492 420.918C94.2492 422.738 94.257 424.199 94.2727 425.301C94.2961 426.402 94.3078 426.969 94.3078 427Z" fill="black"/>
<ellipse cx="77.2855" cy="290" rx="14.3121" ry="15" fill="black"/>
<path d="M57.991 277.104L35.0542 258.121L49.3664 247.837L57.991 277.104Z" fill="black"/>
<path d="M51.7956 286.37L12.6884 291.925L16.5765 267.708L51.7956 286.37Z" fill="black"/>
<path d="M845.562 29.8359C845.156 29.8359 844.648 29.4219 844.039 28.5938L843.594 28.0312L826.578 28.9922C826.219 29.0078 825.945 28.9297 825.758 28.7578C825.586 28.5859 825.5 28.3281 825.5 27.9844C825.5 27.5 825.75 27.1953 826.25 27.0703L827.492 27L829.273 26.9766C830.305 25.3359 831.32 23.3906 832.32 21.1406C832.492 20.7344 832.688 20.4375 832.906 20.25C833.141 20.0469 833.406 19.9453 833.703 19.9453C834.375 19.9453 834.711 20.2422 834.711 20.8359C834.711 21.2422 834.109 22.4219 832.906 24.375L831.312 26.9062C836.75 26.7812 840.242 26.6641 841.789 26.5547L842.234 26.5312C841.125 25.2969 840.297 24.4844 839.75 24.0938C839.25 23.75 839 23.4062 839 23.0625C839 22.7812 839.07 22.5703 839.211 22.4297C839.352 22.2891 839.578 22.2188 839.891 22.2188C840.281 22.2188 841.508 23.1953 843.57 25.1484C845.602 27.0859 846.617 28.3359 846.617 28.8984C846.617 29.5234 846.266 29.8359 845.562 29.8359ZM827.727 33.5625C827.617 31.7812 828.461 30.9453 830.258 31.0547H841.766C843.594 30.9453 844.445 31.7812 844.32 33.5625V38.0859C844.43 39.8672 843.578 40.7109 841.766 40.6172H830.258C829.336 40.6172 828.664 40.4141 828.242 40.0078C827.836 39.6016 827.664 38.9609 827.727 38.0859V33.5625ZM829.719 37.5469C829.719 38.3906 830.125 38.8125 830.938 38.8125H841.062C841.922 38.8125 842.352 38.4062 842.352 37.5938V34.125C842.352 33.2656 841.938 32.8359 841.109 32.8359H830.984C830.141 32.8359 829.719 33.25 829.719 34.0781V37.5469ZM857.599 34.4766C855.802 34.5859 854.951 33.7344 855.044 31.9219V26.6953C855.044 25.7578 855.24 25.0781 855.63 24.6562C856.037 24.2344 856.693 24.0547 857.599 24.1172H863.529V21.0469C863.529 20.2656 863.872 19.875 864.56 19.875C865.247 19.875 865.591 20.2656 865.591 21.0469V24.1172H871.755C873.552 24.0078 874.404 24.8672 874.31 26.6953V31.9219C874.31 32.8438 874.107 33.5156 873.701 33.9375C873.294 34.3594 872.646 34.5391 871.755 34.4766H865.591V40.1484C865.591 40.9141 865.247 41.2969 864.56 41.2969C863.872 41.2969 863.529 40.9141 863.529 40.1484V34.4766H857.599ZM857.083 31.2656C857.083 31.7969 857.169 32.1562 857.341 32.3438C857.529 32.5156 857.888 32.6016 858.419 32.6016H863.529V25.9922H858.419C857.888 25.9922 857.529 26.0859 857.341 26.2734C857.169 26.4453 857.083 26.8047 857.083 27.3516V31.2656ZM870.912 32.6016C871.443 32.6016 871.794 32.5156 871.966 32.3438C872.154 32.1562 872.247 31.7969 872.247 31.2656V27.3516C872.247 26.8047 872.154 26.4453 871.966 26.2734C871.794 26.0859 871.443 25.9922 870.912 25.9922H865.591V32.6016H870.912Z" fill="black"/>
<path d="M813.559 56.9727C813.434 56.9727 812.91 56.9688 811.988 56.9609C811.066 56.9531 809.672 56.9492 807.805 56.9492C807.789 58.5508 807.777 59.7656 807.77 60.5938C807.762 61.4219 807.758 62.5508 807.758 63.9805C807.758 65.3555 807.762 66.7539 807.77 68.1758C807.785 69.5898 807.797 70.5312 807.805 71H805.871C805.887 70.5312 805.898 69.5742 805.906 68.1289C805.922 66.6836 805.93 65.2695 805.93 63.8867C805.93 62.5273 805.93 61.4492 805.93 60.6523C805.93 59.8477 805.918 58.6133 805.895 56.9492C804.23 56.9414 802.879 56.9453 801.84 56.9609C800.809 56.9688 800.242 56.9727 800.141 56.9727V55.3438C800.945 55.3438 801.922 55.3477 803.07 55.3555C804.227 55.3633 805.457 55.3672 806.762 55.3672C808.652 55.3672 810.23 55.3633 811.496 55.3555C812.77 55.3477 813.457 55.3438 813.559 55.3438V56.9727ZM825.958 64.3203C825.958 66.2578 825.955 67.8359 825.947 69.0547C825.939 70.2734 825.935 70.9297 825.935 71.0234C825.857 71.0312 825.494 71.0586 824.845 71.1055C824.197 71.1602 823.361 71.1875 822.337 71.1875C821.697 71.1875 821.052 71.1289 820.404 71.0117C819.755 70.8945 819.197 70.7266 818.728 70.5078C818.103 70.2188 817.595 69.8242 817.205 69.3242C816.822 68.8242 816.63 68.2227 816.63 67.5195C816.63 66.7773 816.857 66.1367 817.31 65.5977C817.771 65.0508 818.408 64.6094 819.22 64.2734C819.728 64.0625 820.404 63.875 821.247 63.7109C822.099 63.5391 823.068 63.4102 824.154 63.3242C824.107 62.7148 823.955 62.2148 823.697 61.8242C823.439 61.4336 823.06 61.1367 822.56 60.9336C822.216 60.793 821.833 60.6953 821.412 60.6406C820.99 60.5781 820.497 60.5469 819.935 60.5469C819.583 60.5469 819.283 60.5547 819.033 60.5703C818.79 60.5859 818.458 60.6055 818.037 60.6289L818.224 59.0703C818.341 59.0625 818.572 59.0508 818.915 59.0352C819.267 59.0117 819.744 59 820.345 59C821.267 59 822.087 59.0977 822.806 59.293C823.533 59.4805 824.134 59.7891 824.611 60.2188C825.056 60.625 825.392 61.1289 825.619 61.7305C825.845 62.3242 825.958 63.1875 825.958 64.3203ZM824.165 67.1445C824.165 66.8789 824.165 66.543 824.165 66.1367C824.165 65.7305 824.162 65.2617 824.154 64.7305C823.81 64.7461 823.208 64.8164 822.349 64.9414C821.49 65.0586 820.767 65.2305 820.181 65.457C819.744 65.6211 819.353 65.8672 819.009 66.1953C818.673 66.5234 818.505 66.9297 818.505 67.4141C818.505 67.9453 818.65 68.375 818.939 68.7031C819.228 69.0234 819.622 69.2695 820.122 69.4414C820.505 69.5742 820.927 69.6719 821.388 69.7344C821.857 69.7891 822.349 69.8164 822.865 69.8164C823.021 69.8164 823.212 69.8125 823.439 69.8047C823.665 69.7969 823.904 69.7891 824.154 69.7812C824.154 69.7266 824.154 69.4688 824.154 69.0078C824.162 68.5469 824.165 67.9258 824.165 67.1445ZM836.788 56.8672H834.725V54.8516H836.788V56.8672ZM836.682 71H834.831C834.839 70.875 834.847 70.1055 834.854 68.6914C834.87 67.2773 834.878 66.1094 834.878 65.1875C834.878 64.3828 834.874 63.5 834.866 62.5391C834.866 61.5703 834.854 60.4375 834.831 59.1406H836.682C836.667 60.2656 836.651 61.3203 836.636 62.3047C836.628 63.2812 836.624 64.1523 836.624 64.918C836.624 66.7383 836.632 68.1992 836.647 69.3008C836.671 70.4023 836.682 70.9688 836.682 71ZM853.477 69.4766L853.336 71.0469C853.274 71.0469 853.172 71.0469 853.032 71.0469C852.899 71.0469 852.785 71.0469 852.692 71.0469C851.684 71.0469 850.743 70.9531 849.868 70.7656C848.993 70.5703 848.207 70.2852 847.512 69.9102C846.567 69.3945 845.828 68.7109 845.297 67.8594C844.766 67.0078 844.5 66.0586 844.5 65.0117C844.5 64.0742 844.743 63.2148 845.227 62.4336C845.711 61.6445 846.344 61 847.125 60.5C847.828 60.0469 848.668 59.7031 849.645 59.4688C850.629 59.2266 851.645 59.1055 852.692 59.1055C852.778 59.1055 852.864 59.1055 852.95 59.1055C853.043 59.1055 853.118 59.1055 853.172 59.1055L853.266 60.6758C853.211 60.6758 853.149 60.6758 853.078 60.6758C853.016 60.6758 852.957 60.6758 852.903 60.6758C852.035 60.6758 851.293 60.7305 850.676 60.8398C850.067 60.9414 849.473 61.1133 848.895 61.3555C848.121 61.668 847.508 62.1602 847.055 62.832C846.602 63.5039 846.375 64.2227 846.375 64.9883C846.375 65.9023 846.586 66.6719 847.008 67.2969C847.438 67.9141 848.004 68.3906 848.707 68.7266C849.254 68.9922 849.871 69.1836 850.559 69.3008C851.246 69.418 851.973 69.4766 852.739 69.4766C852.864 69.4766 853.004 69.4766 853.16 69.4766C853.317 69.4766 853.422 69.4766 853.477 69.4766ZM870.845 71H868.994C869.002 70.7656 869.01 70.0625 869.017 68.8906C869.033 67.7109 869.041 66.9336 869.041 66.5586C869.041 66.1523 869.037 65.5547 869.029 64.7656C869.029 63.9688 869.025 63.3867 869.017 63.0195C868.994 62.1211 868.822 61.4766 868.502 61.0859C868.181 60.6953 867.627 60.5 866.838 60.5C866.392 60.5 865.822 60.6367 865.127 60.9102C864.431 61.1758 863.697 61.5391 862.924 62L862.97 71H861.119C861.127 70.6953 861.135 69.4688 861.142 67.3203C861.158 65.1641 861.166 63.3906 861.166 62C861.166 61.0938 861.162 59.9531 861.154 58.5781C861.154 57.1953 861.142 55.6094 861.119 53.8203H862.97L862.924 60.4883L862.935 60.5C864.052 59.875 864.967 59.4414 865.677 59.1992C866.388 58.957 866.998 58.8359 867.506 58.8359C868.506 58.8359 869.306 59.1523 869.908 59.7852C870.517 60.4102 870.822 61.2695 870.822 62.3633C870.822 63.3477 870.814 64.1992 870.799 64.918C870.791 65.6289 870.787 66.207 870.787 66.6523C870.787 67.3633 870.795 68.1797 870.81 69.1016C870.826 70.0234 870.838 70.6562 870.845 71ZM889.28 71H887.488V69.6406L887.476 69.6289C886.929 69.9883 886.245 70.3594 885.425 70.7422C884.613 71.1172 883.812 71.3047 883.023 71.3047C881.945 71.3047 881.101 70.9844 880.491 70.3438C879.882 69.7031 879.577 68.8047 879.577 67.6484C879.577 67.0234 879.581 66.2812 879.589 65.4219C879.605 64.5547 879.613 63.9258 879.613 63.5352C879.613 62.8242 879.601 61.9492 879.577 60.9102C879.562 59.8633 879.554 59.2734 879.554 59.1406H881.405C881.405 59.2422 881.398 59.8047 881.382 60.8281C881.366 61.8516 881.359 62.668 881.359 63.2773C881.359 63.8164 881.363 64.4883 881.37 65.293C881.378 66.0977 881.382 66.668 881.382 67.0039C881.398 67.9258 881.558 68.6016 881.863 69.0312C882.167 69.4609 882.659 69.6758 883.339 69.6758C884.034 69.6758 884.796 69.4883 885.624 69.1133C886.46 68.7383 887.073 68.4102 887.464 68.1289C887.464 68.0352 887.468 67.6055 887.476 66.8398C887.484 66.0664 887.488 65.1055 887.488 63.957C887.488 63.1367 887.476 62.1562 887.452 61.0156C887.437 59.8672 887.429 59.2422 887.429 59.1406H889.28C889.28 59.2734 889.273 59.7148 889.257 60.4648C889.241 61.207 889.234 62.4766 889.234 64.2734C889.234 65.2812 889.238 66.168 889.245 66.9336C889.253 67.6914 889.265 69.0469 889.28 71ZM907.856 71H906.005C906.012 70.7812 906.02 70.0586 906.028 68.832C906.044 67.6055 906.051 66.8477 906.051 66.5586C906.051 66.1523 906.048 65.5547 906.04 64.7656C906.04 63.9688 906.036 63.3867 906.028 63.0195C906.005 62.1211 905.833 61.4766 905.512 61.0859C905.192 60.6953 904.637 60.5 903.848 60.5C903.372 60.5 902.782 60.6406 902.079 60.9219C901.376 61.2031 900.665 61.5625 899.946 62C899.946 62.0859 899.942 62.5508 899.934 63.3945C899.926 64.2383 899.923 65.0078 899.923 65.7031C899.923 66.6094 899.93 67.7031 899.946 68.9844C899.969 70.2656 899.981 70.9375 899.981 71H898.13C898.13 70.9453 898.137 70.4688 898.153 69.5703C898.169 68.6641 898.176 67.3203 898.176 65.5391C898.176 64.7188 898.173 63.7578 898.165 62.6562C898.165 61.5547 898.153 60.3828 898.13 59.1406H899.958L899.946 60.4883L899.958 60.5117C901.051 59.8867 901.962 59.4531 902.688 59.2109C903.423 58.9609 904.032 58.8359 904.516 58.8359C905.516 58.8359 906.317 59.1523 906.919 59.7852C907.528 60.4102 907.833 61.2695 907.833 62.3633C907.833 63.3477 907.825 64.1992 907.809 64.918C907.801 65.6289 907.798 66.207 907.798 66.6523C907.798 67.3633 907.805 68.2539 907.821 69.3242C907.844 70.3867 907.856 70.9453 907.856 71ZM925.6 59.0352C925.6 59.207 925.592 59.9805 925.576 61.3555C925.568 62.7305 925.565 64.0391 925.565 65.2812C925.565 66.125 925.568 66.9844 925.576 67.8594C925.584 68.7344 925.588 69.5352 925.588 70.2617C925.588 71.5977 925.357 72.6445 924.897 73.4023C924.443 74.1602 923.795 74.7656 922.951 75.2188C922.287 75.5625 921.479 75.832 920.525 76.0273C919.572 76.2305 918.416 76.332 917.057 76.332L916.869 74.8438C917.783 74.8281 918.604 74.7773 919.33 74.6914C920.057 74.6133 920.717 74.4648 921.311 74.2461C922.225 73.9023 922.861 73.4453 923.221 72.875C923.58 72.3125 923.768 71.625 923.783 70.8125C923.69 70.8125 923.596 70.8125 923.502 70.8125C923.408 70.8125 923.315 70.8125 923.221 70.8125C922.291 70.8125 921.334 70.7031 920.35 70.4844C919.365 70.2578 918.525 69.9023 917.83 69.418C917.143 68.957 916.584 68.3555 916.154 67.6133C915.725 66.8711 915.51 65.9531 915.51 64.8594C915.51 63.7656 915.811 62.8008 916.412 61.9648C917.014 61.1289 917.818 60.4648 918.826 59.9727C919.545 59.6211 920.326 59.3789 921.17 59.2461C922.022 59.1055 923.049 59.0352 924.252 59.0352C924.471 59.0352 924.686 59.0352 924.897 59.0352C925.115 59.0352 925.35 59.0352 925.6 59.0352ZM923.807 65.2695C923.807 64.707 923.803 64.0039 923.795 63.1602C923.795 62.3164 923.787 61.4375 923.772 60.5234C923.725 60.5234 923.674 60.5234 923.619 60.5234C923.565 60.5234 923.514 60.5234 923.467 60.5234C922.74 60.5234 922.104 60.5703 921.557 60.6641C921.018 60.7578 920.447 60.9336 919.846 61.1914C919.049 61.5352 918.44 62.0391 918.018 62.7031C917.596 63.3672 917.385 64.1172 917.385 64.9531C917.385 65.8125 917.592 66.5469 918.006 67.1562C918.428 67.7656 918.99 68.2383 919.693 68.5742C920.17 68.8008 920.721 68.9844 921.346 69.125C921.979 69.2656 922.647 69.3359 923.35 69.3359C923.436 69.3359 923.514 69.3359 923.584 69.3359C923.654 69.3359 923.721 69.3359 923.783 69.3359C923.783 69.2422 923.787 68.8086 923.795 68.0352C923.803 67.2539 923.807 66.332 923.807 65.2695Z" fill="black"/>
</svg>
