<svg width="102" height="778" viewBox="0 0 102 778" fill="none" xmlns="http://www.w3.org/2000/svg">
<g filter="url(#filter0_d_498_1192)">
<path d="M14.25 612.375C37.4167 623.875 56.9583 633.375 72.875 640.875C88.7917 648.375 96.75 652.146 96.75 652.188V656.562C96.75 656.562 89.0833 660.042 73.75 667C58.375 673.917 41.5208 681.562 23.1875 689.938V690.125C40.4792 699.042 57.0625 707.354 72.9375 715.062C88.8125 722.771 96.75 726.625 96.75 726.625V731.125C96.75 731.125 87.4792 735.438 68.9375 744.062C50.3542 752.688 32 761.312 13.875 769.938L12 764.438C12 764.438 20.1458 760.708 36.4375 753.25C52.7292 745.792 70.4583 737.625 89.625 728.75V728.562C71.9167 719.896 55.0833 711.667 39.125 703.875C23.125 696.083 15.125 692.167 15.125 692.125V687.25C15.125 687.25 23.0417 683.812 38.875 676.938C54.6667 670.021 71.2083 662.5 88.5 654.375V654.25C68.5 644.958 50.7708 636.604 35.3125 629.188C19.8542 621.771 12.125 618.062 12.125 618.062L14.25 612.375ZM61.9375 516.335V579.585C65.7292 579.585 69.2292 578.918 72.4375 577.585C75.6042 576.252 78.375 574.335 80.75 571.835C84.25 568.21 86.9583 563.418 88.875 557.46C90.75 551.46 91.6875 544.502 91.6875 536.585C91.6875 533.085 91.6667 530.522 91.625 528.897C91.5417 527.272 91.4167 525.731 91.25 524.272L96 525.46C96.0417 526.252 96.1042 527.231 96.1875 528.397C96.3125 529.522 96.375 532.272 96.375 536.647C96.375 545.689 95.4375 553.335 93.5625 559.585C91.6458 565.793 88.5833 571.127 84.375 575.585C81.5417 578.585 78.3333 580.897 74.75 582.522C71.1667 584.106 67.3542 584.897 63.3125 584.897C58.7292 584.897 54.4583 583.981 50.5 582.147C46.5 580.272 43.0833 577.71 40.25 574.46C37.5 571.252 35.3542 567.502 33.8125 563.21C32.2708 558.877 31.5 554.293 31.5 549.46C31.5 544.585 32.2083 540.168 33.625 536.21C35.0417 532.21 36.9583 528.835 39.375 526.085C42.25 522.835 45.6667 520.397 49.625 518.772C53.5833 517.147 57.6875 516.335 61.9375 516.335ZM57.6875 522.147C50.8958 523.314 45.625 526.252 41.875 530.96C38.0833 535.627 36.1875 541.856 36.1875 549.647C36.1875 557.064 38.2292 563.502 42.3125 568.96C46.3542 574.418 51.4792 577.793 57.6875 579.085V522.147ZM96.125 471.545V476.67C94.2917 476.67 86.9375 476.67 74.0625 476.67C61.1875 476.628 52.0833 476.607 46.75 476.607C41.8333 476.607 34.875 476.628 25.875 476.67C16.875 476.67 9.70833 476.67 4.375 476.67V471.545C11 471.545 18.5833 471.566 27.125 471.607C35.625 471.607 42.2083 471.607 46.875 471.607C51.8333 471.607 60.8542 471.607 73.9375 471.607C86.9792 471.566 94.375 471.545 96.125 471.545ZM91.625 370.755L96.25 371.38C96.25 371.713 96.25 372.338 96.25 373.255C96.25 374.13 96.25 374.984 96.25 375.818C96.25 384.401 95.5625 391.963 94.1875 398.505C92.7708 405.005 90.8125 410.505 88.3125 415.005C85.4792 420.13 82 423.984 77.875 426.568C73.7083 429.109 69.0833 430.38 64 430.38C59.375 430.38 55.0833 429.047 51.125 426.38C47.125 423.713 43.7083 419.922 40.875 415.005C38.2083 410.38 36.1458 404.776 34.6875 398.193C33.2292 391.568 32.5 384.318 32.5 376.443C32.5 375.818 32.5 375.193 32.5 374.568C32.5 373.943 32.5 373.422 32.5 373.005L37.25 372.63C37.25 373.005 37.25 373.38 37.25 373.755C37.25 374.13 37.25 374.568 37.25 375.068C37.25 383.193 37.9375 390.422 39.3125 396.755C40.6458 403.047 42.5208 408.318 44.9375 412.568C47.3125 416.693 50.1667 419.818 53.5 421.943C56.7917 424.068 60.3333 425.13 64.125 425.13C68.25 425.13 72.0208 424.047 75.4375 421.88C78.8542 419.713 81.7292 416.568 84.0625 412.443C86.5208 408.068 88.3958 402.755 89.6875 396.505C90.9792 390.213 91.625 383.338 91.625 375.88C91.625 374.88 91.625 373.838 91.625 372.755C91.625 371.672 91.625 371.005 91.625 370.755ZM64.4375 263.527C69.2708 263.527 73.7708 264.527 77.9375 266.527C82.1042 268.527 85.6667 271.34 88.625 274.965C91.2917 278.215 93.3958 282.111 94.9375 286.652C96.4792 291.152 97.25 296.132 97.25 301.59C97.25 307.09 96.4792 312.111 94.9375 316.652C93.3958 321.194 91.3125 325.111 88.6875 328.402C85.7292 332.027 82.1667 334.861 78 336.902C73.8333 338.902 69.3333 339.902 64.5 339.902C59.375 339.902 54.6667 338.84 50.375 336.715C46.0833 334.59 42.4792 331.611 39.5625 327.777C37.0208 324.527 35.0417 320.673 33.625 316.215C32.2083 311.757 31.5 306.902 31.5 301.652C31.5 296.277 32.2083 291.319 33.625 286.777C35.0417 282.194 37.0625 278.236 39.6875 274.902C42.5208 271.361 46.0417 268.59 50.25 266.59C54.4167 264.548 59.1458 263.527 64.4375 263.527ZM64.4375 268.902C59.8542 268.902 55.7917 269.777 52.25 271.527C48.6667 273.277 45.6875 275.673 43.3125 278.715C40.9375 281.757 39.1042 285.236 37.8125 289.152C36.5208 293.069 35.875 297.173 35.875 301.465C35.875 306.173 36.5208 310.507 37.8125 314.465C39.0625 318.382 40.8542 321.777 43.1875 324.652C45.6875 327.736 48.75 330.152 52.375 331.902C55.9583 333.652 59.9792 334.527 64.4375 334.527C68.9792 334.527 73.0417 333.611 76.625 331.777C80.2083 329.902 83.2083 327.465 85.625 324.465C88 321.507 89.8125 318.069 91.0625 314.152C92.2708 310.236 92.875 306.111 92.875 301.777C92.875 297.152 92.25 292.882 91 288.965C89.7083 285.007 87.8958 281.59 85.5625 278.715C83.0625 275.673 80.0208 273.277 76.4375 271.527C72.8542 269.777 68.8542 268.902 64.4375 268.902ZM96 109.987V115.05C94.5833 115.092 91.3333 115.092 86.25 115.05C81.125 115.008 76.1042 114.987 71.1875 114.987C66.6875 114.987 62.9792 114.987 60.0625 114.987C57.1042 114.987 54.9375 114.987 53.5625 114.987C48.2292 114.987 43.9583 116.279 40.75 118.862C37.5 121.446 35.875 126.237 35.875 133.237C35.875 137.612 36.6458 142.467 38.1875 147.8C39.6875 153.133 42.1042 158.654 45.4375 164.362C45.8542 164.279 46.8333 164.196 48.375 164.112C49.875 164.029 50.8958 163.987 51.4375 163.987C55.6458 163.987 59.0833 164.008 61.75 164.05C64.375 164.05 68.3333 164.05 73.625 164.05C76.5417 164.05 80.3125 164.05 84.9375 164.05C89.5625 164.05 93.25 164.05 96 164.05V169.112C94.125 169.112 90.4167 169.112 84.875 169.112C79.2917 169.071 75.1042 169.05 72.3125 169.05C66.3542 169.05 62.0625 169.05 59.4375 169.05C56.7708 169.05 54.7708 169.05 53.4375 169.05C49.8542 169.05 46.8542 169.55 44.4375 170.55C42.0208 171.55 40.1458 173.05 38.8125 175.05C37.8125 176.508 37.0833 178.258 36.625 180.3C36.125 182.342 35.875 184.654 35.875 187.237C35.875 191.821 36.8125 196.883 38.6875 202.425C40.5208 207.967 42.6667 213.196 45.125 218.112C46.3333 218.112 49.3125 218.112 54.0625 218.112C58.8125 218.112 63.2917 218.112 67.5 218.112C72.1667 218.112 77.4167 218.112 83.25 218.112C89.0417 218.071 93.2917 218.05 96 218.05V223.175C94.1667 223.175 89.5625 223.175 82.1875 223.175C74.7708 223.133 68.0625 223.112 62.0625 223.112C56.3542 223.112 51.1667 223.133 46.5 223.175C41.7917 223.175 37.25 223.175 32.875 223.175V218.05L40 218.175L40.1875 217.862C37.1875 211.696 35 205.987 33.625 200.737C32.2083 195.487 31.5 190.612 31.5 186.112C31.5 181.029 32.3333 176.883 34 173.675C35.6667 170.425 38.0208 168.008 41.0625 166.425V166.112C38.1458 161.154 35.8333 155.883 34.125 150.3C32.375 144.675 31.5 138.612 31.5 132.112C31.5 124.654 33.2917 119.092 36.875 115.425C40.4583 111.758 45.6042 109.925 52.3125 109.925C57.8125 109.925 62.1667 109.946 65.375 109.987C68.5833 109.987 71.0417 109.987 72.75 109.987C74.8333 109.987 78.6458 109.987 84.1875 109.987C89.7292 109.987 93.6667 109.987 96 109.987ZM61.9375 0.88501V64.135C65.7292 64.135 69.2292 63.4683 72.4375 62.135C75.6042 60.8017 78.375 58.885 80.75 56.385C84.25 52.76 86.9583 47.9683 88.875 42.01C90.75 36.01 91.6875 29.0517 91.6875 21.135C91.6875 17.635 91.6667 15.0725 91.625 13.4475C91.5417 11.8225 91.4167 10.2808 91.25 8.82251L96 10.01C96.0417 10.8017 96.1042 11.7808 96.1875 12.9475C96.3125 14.0725 96.375 16.8225 96.375 21.1975C96.375 30.2392 95.4375 37.885 93.5625 44.135C91.6458 50.3433 88.5833 55.6767 84.375 60.135C81.5417 63.135 78.3333 65.4475 74.75 67.0725C71.1667 68.6558 67.3542 69.4475 63.3125 69.4475C58.7292 69.4475 54.4583 68.5308 50.5 66.6975C46.5 64.8225 43.0833 62.26 40.25 59.01C37.5 55.8017 35.3542 52.0517 33.8125 47.76C32.2708 43.4267 31.5 38.8433 31.5 34.01C31.5 29.135 32.2083 24.7183 33.625 20.76C35.0417 16.76 36.9583 13.385 39.375 10.635C42.25 7.38501 45.6667 4.94751 49.625 3.32251C53.5833 1.69751 57.6875 0.88501 61.9375 0.88501ZM57.6875 6.69751C50.8958 7.86418 45.625 10.8017 41.875 15.51C38.0833 20.1767 36.1875 26.4058 36.1875 34.1975C36.1875 41.6142 38.2292 48.0517 42.3125 53.51C46.3542 58.9683 51.4792 62.3433 57.6875 63.635V6.69751Z" fill="white"/>
</g>
<defs>
<filter id="filter0_d_498_1192" x="0.375" y="0.884766" width="100.875" height="777.053" filterUnits="userSpaceOnUse" color-interpolation-filters="sRGB">
<feFlood flood-opacity="0" result="BackgroundImageFix"/>
<feColorMatrix in="SourceAlpha" type="matrix" values="0 0 0 0 0 0 0 0 0 0 0 0 0 0 0 0 0 0 127 0" result="hardAlpha"/>
<feOffset dy="4"/>
<feGaussianBlur stdDeviation="2"/>
<feComposite in2="hardAlpha" operator="out"/>
<feColorMatrix type="matrix" values="0 0 0 0 0 0 0 0 0 0 0 0 0 0 0 0 0 0 0.25 0"/>
<feBlend mode="normal" in2="BackgroundImageFix" result="effect1_dropShadow_498_1192"/>
<feBlend mode="normal" in="SourceGraphic" in2="effect1_dropShadow_498_1192" result="shape"/>
</filter>
</defs>
</svg>
